<?xml version="1.0" encoding="UTF-8"?>
<svg width="60px" height="60px" viewBox="0 0 60 60" version="1.1" xmlns="http://www.w3.org/2000/svg" xmlns:xlink="http://www.w3.org/1999/xlink">
    <!-- Generator: Sketch 60.1 (88133) - https://sketch.com -->
    <title>Group</title>
    <desc>Created with Sketch.</desc>
    <g id="Page-1" stroke="none" stroke-width="1" fill="none" fill-rule="evenodd">
        <g id="Group">
            <rect id="Rectangle" fill="#FFFFFF" x="15" y="12" width="27" height="35"></rect>
            <g id="back" fill="#21445B" fill-rule="nonzero">
                <path d="M30,0 C13.4574609,0 0,13.4574609 0,30 C0,46.5425391 13.4574609,60 30,60 C46.5425391,60 60,46.5425391 60,30 C60,13.4574609 46.5425391,0 30,0 Z M36.7674609,40.7325 C37.7449219,41.7099609 37.7449219,43.29 36.7674609,44.2674609 C36.2799609,44.7549609 35.64,45 34.9999219,45 C34.3599609,45 33.7198828,44.7549609 33.2323828,44.2674609 L20.7324609,31.7675391 C19.755,30.7900781 19.755,29.2100391 20.7324609,28.2325781 L33.2325,15.7325391 C34.2099609,14.7550781 35.79,14.7550781 36.7674609,15.7325391 C37.7449219,16.71 37.7449219,18.2900391 36.7674609,19.2675 L26.0349609,30 L36.7674609,40.7325 Z" id="Shape"></path>
            </g>
        </g>
    </g>
</svg>